<svg width="36" height="24" viewBox="0 0 36 24" fill="none" xmlns="http://www.w3.org/2000/svg">
<path d="M36 12C36 13.5759 35.6896 15.1363 35.0866 16.5922C34.4835 18.0481 33.5996 19.371 32.4853 20.4853C31.371 21.5996 30.0481 22.4835 28.5922 23.0866C27.1363 23.6896 25.5759 24 24 24L24 12H36Z" fill="#C6ABF7"/>
<path d="M12 24C9.62662 24 7.30655 23.2962 5.33316 21.9776C3.35977 20.6591 1.8217 18.7849 0.913445 16.5922C0.0051938 14.3995 -0.232446 11.9867 0.230577 9.65892C0.6936 7.33114 1.83649 5.19295 3.51472 3.51472C5.19295 1.83649 7.33115 0.693599 9.65892 0.230576C11.9867 -0.232446 14.3995 0.00519433 16.5922 0.913446C18.7849 1.8217 20.6591 3.35977 21.9776 5.33316C23.2962 7.30655 24 9.62663 24 12L12 12L12 24Z" fill="#C6ABF7"/>
</svg>
